# AST/ASF file generated using VICON BodyLanguage
# -----------------------------------------------
:version 1.10
:name VICON
:units
  mass 1.0
  length 0.45
  angle deg
:documentation
   .ast/.asf automatically generated from VICON data using
   VICON BodyBuilder and BodyLanguage model FoxedUp or BRILLIANT.MOD
:root
   order TX TY TZ RX RY RZ
   axis XYZ
   position 0 0 0  
   orientation 0 0 0 
:bonedata
  begin
     id 1 
     name lhipjoint
     direction 0.623415 -0.642378 0.445763 
     length 2.49859 
     axis 0 0 0  XYZ
  end
  begin
     id 2 
     name lfemur
     direction 0.34202 -0.939693 0  
     length 6.69689  
     axis 0 0 20  XYZ
    dof rx ry rz
    limits (-160.0 20.0)
           (-70.0 70.0)
           (-60.0 70.0)
  end
  begin
     id 3 
     name ltibia
     direction 0.34202 -0.939693 0   
     length 7.37574   
     axis 0 0 20   XYZ
    dof rx
    limits (-10.0 170.0)
  end
  begin
     id 4 
     name lfoot
     direction 0.084323 -0.231675 0.969132   
     length 2.09111   
     axis -90 7.62852e-016 20   XYZ
    dof rx rz
    limits (-45.0 90.0)
           (-70.0 20.0)
  end
  begin
     id 5 
     name ltoes
     direction 1.5357e-011 -4.21957e-011 1   
     length 1.04989   
     axis -90 7.62852e-016 20   XYZ
    dof rx
    limits (-90.0 20.0)
  end
  begin
     id 6 
     name rhipjoint
     direction -0.605402 -0.653903 0.45376   
     length 2.45455  
     axis 0 0 0  XYZ 
  end
  begin
     id 7 
     name rfemur
     direction -0.34202 -0.939693 0   
     length 6.64523   
     axis 0 0 -20   XYZ
    dof rx ry rz
    limits (-160.0 20.0)
           (-70.0 70.0)
           (-70.0 60.0)
  end
  begin
     id 8 
     name rtibia
     direction -0.34202 -0.939693 0   
     length 7.3339   
     axis 0 0 -20   XYZ
    dof rx
    limits (-10.0 170.0)
 end
 begin
     id 9 
     name rfoot
     direction -0.120854 -0.332043 0.93549   
     length 2.23135  
     axis -90 -7.62852e-016 -20   XYZ
    dof rx rz
    limits (-45.0 90.0)
           (-20.0 70.0)
  end
  begin
     id 10 
     name rtoes
     direction -1.53563e-011 -4.21914e-011 1   
     length 1.10614   
     axis -90 -7.62852e-016 -20   XYZ
    dof rx
    limits (-90.0 20.0)
  end
  begin
     id 11 
     name lowerback
     direction 0.0319682 0.998615 -0.0417941   
     length 2.02718   
     axis 0 0 0   XYZ
    dof rx ry rz
    limits (-20.0 45.0)
           (-30.0 30.0)
           (-30.0 30.0)
  end
  begin
     id 12 
     name upperback
     direction 7.63181e-005 0.995808 0.0914691   
     length 1.97539   
     axis 0 0 0   XYZ
    dof rx ry rz
    limits (-20.0 45.0)
           (-30.0 30.0)
           (-30.0 30.0)
  end
  begin
     id 13 
     name thorax
     direction -0.016423 0.993627 0.111514   
     length 2.00349   
     axis 0 0 0   XYZ
    dof rx ry rz
    limits (-20.0 45.0)
           (-30.0 30.0)
           (-30.0 30.0)
  end
  begin
     id 14 
     name lowerneck
     direction -0.174763 0.981668 -0.0760716   
     length 1.71436   
     axis 0 0 0   XYZ
    dof rx ry rz
    limits (-20.0 45.0)
           (-30.0 30.0)
           (-30.0 30.0)
  end
  begin
     id 15 
     name upperneck
     direction 0.345458 0.934587 -0.0848868   
     length 1.72805   
     axis 0 0 0   XYZ
    dof rx ry rz
    limits (-20.0 45.0)
           (-30.0 30.0)
           (-30.0 30.0)
  end
  begin
     id 16
     name head
     direction 0.13001 0.989848 -0.0574291  
     length 1.767  
     axis 0 0 0   XYZ
    dof rx ry rz
    limits (-20.0 45.0)
           (-30.0 30.0)
           (-30.0 30.0)
  end
  begin
     id 17 
     name lclavicle
     direction 0.952951 0.290122 0.0878234  
     length 3.54654  
     axis 0 0 0   XYZ
    dof ry rz
    limits (-20.0 10.0)
           (0.0 20.0)
  end
  begin
     id 18 
     name lhumerus
     direction 1 -4.48957e-011 -4.56525e-028   
     length 5.19807   
     axis 180 -30 -90   XYZ
    dof rx ry rz
    limits (-60.0 90.0)
           (-90.0 90.0)
           (-90.0 90.0)
  end
  begin
     id 19
     name lradius
     direction 1 -4.48979e-011 -2.0317e-027   
     length 3.0937   
     axis 180 -30 -90   XYZ
    dof rx
    limits (-10.0 170.0)
  end
  begin
     id 20
     name lwrist
     direction 1 -4.48953e-011 -3.05809e-027   
     length 1.54685   
     axis 8.48514e-016 90 90   XYZ
    dof ry
    limits (-180.0 0.0)
 end
  begin
     id 21 
     name lhand
     direction 1 -4.48952e-011 -6.11639e-027   
     length 0.672632   
     axis 3.9013e-015 90 90   XYZ
    dof rx rz
    limits (-90.0 90.0)
           (-45.0 45.0)
  end
  begin
     id 22 
     name lfingers
     direction 1 -4.48925e-011 -1.22426e-026   
     length 0.542293   
     axis 7.80276e-015 90 90   XYZ
    dof rx
    limits (0.0 90.0)
  end
  begin
     id 23
     name lthumb
     direction 0.707107 -6.3486e-011 0.707107   
     length 0.778628   
     axis -90 45 5.37419e-014   XYZ
    dof rx rz
    limits (-45.0 45.0)
           (-45.0 45.0)
  end
  begin
     id 24 
     name rclavicle
     direction -0.960732 0.273675 -0.0457849   
     length 3.52079  
     axis 0 0 0   XYZ 
    dof ry rz
    limits (-10.0 20.0)
           (-20.0 0.0)
  end
  begin
     id 25 
     name rhumerus
     direction -1 -4.48976e-011 -1.63613e-027  
     length 5.45222   
     axis 180 30 90   XYZ
    dof rx ry rz
    limits (-90.0 60.0)
           (-90.0 90.0)
           (-90.0 90.0)
  end
  begin
     id 26 
     name rradius
     direction -1 -4.48957e-011 -7.00033e-028   
     length 3.01284   
     axis 180 30 90   XYZ
    dof rx
    limits (-10.0 170.0)
  end
  begin
     id 27 
     name rwrist
     direction -1 -4.48983e-011 -3.05543e-027   
     length 1.50642   
     axis 8.48514e-016 -90 -90   XYZ
    dof ry
    limits (-180.0 0.0)
  end
  begin
     id 28
     name rhand
     direction -1 -4.48984e-011 -6.11072e-027   
     length 0.622296   
     axis 3.9013e-015 -90 -90   XYZ
    dof rx rz
    limits (-90.0 90.0)
           (-45.0 45.0)
  end
  begin
     id 29
     name rfingers
     direction -1 -4.48865e-011 -1.22637e-026   
     length 0.501711   
     axis 7.80276e-015 -90 -90   XYZ
    dof rx
    limits (0.0 90.0)
  end
  begin
     id 30
     name rthumb
     direction -0.707107 -6.34932e-011 0.707107   
     length 0.72036   
     axis -90 -45 -5.37419e-014   XYZ
    dof rx rz
    limits (-45.0 45.0)
           (-45.0 45.0)
  end
:hierarchy
  begin
    root lhipjoint rhipjoint lowerback
    lhipjoint lfemur
    lfemur ltibia
    ltibia lfoot
    lfoot ltoes
    rhipjoint rfemur
    rfemur rtibia
    rtibia rfoot
    rfoot rtoes
    lowerback upperback
    upperback thorax
    thorax lowerneck lclavicle rclavicle
    lowerneck upperneck
    upperneck head
    lclavicle lhumerus
    lhumerus lradius
    lradius lwrist
    lwrist lhand lthumb
    lhand lfingers
    rclavicle rhumerus
    rhumerus rradius
    rradius rwrist
    rwrist rhand rthumb
    rhand rfingers
  end

#!OML:ASF H:\Not Pregnant\Project 1\Capture day 1\Session 1\non-pregnant.ASF
:FULLY-SPECIFIED
:DEGREES
371
root 12.6927 15.8192 9.2601 190.785 7.2979 176.241
lowerback -5.40727 -0.616983 -0.630138
upperback -9.02869 0.077231 -2.03948
thorax -6.37223 0.422976 -1.82476
lowerneck 6.65303 -10.2294 -31.2113
upperneck 5.73711 -16.8239 35.5308
head 6.98528 -8.36329 17.4909
rclavicle -2.65874e-015 1.08338e-014
rhumerus -26.7622 19.7842 -78.4607
rradius 64.9428
rwrist -18.2553
rhand -16.7584 -30.3556
rfingers 7.12502
rthumb 9.46845 -60.1229
lclavicle -2.65874e-015 1.08338e-014
lhumerus -33.2517 -15.5823 76.3303
lradius 73.3132
lwrist 61.0008
lhand -20.2176 16.0903
lfingers 7.12502
lthumb 6.12972 45.9816
rfemur -44.0347 2.79873 12.7191
rtibia 26.9732
rfoot -3.16439 5.15635
rtoes -30.5127
lfemur 0.610011 -7.59337 -24.7418
ltibia 22.4551
lfoot -11.6882 -21.8861
ltoes -15.4254
372
root 12.755 15.8223 9.10111 190.841 6.95896 176.58
lowerback -5.58993 -0.590474 -0.225167
upperback -9.09561 0.130195 -1.9645
thorax -6.34168 0.433062 -1.97347
lowerneck 6.81517 -10.2142 -31.295
upperneck 5.74075 -16.8447 35.4151
head 6.95381 -8.39403 17.4497
rclavicle -2.65874e-015 -2.71341e-014
rhumerus -27.0832 19.8269 -78.6039
rradius 64.8787
rwrist -18.1509
rhand -16.8696 -30.3785
rfingers 7.12502
rthumb 9.36121 -60.1506
lclavicle -2.65874e-015 -2.71341e-014
lhumerus -33.519 -15.3754 76.4423
lradius 73.3046
lwrist 60.8689
lhand -20.1184 16.0536
lfingers 7.12502
lthumb 6.2255 45.9421
rfemur -43.9865 2.84536 13.1982
rtibia 27.9392
rfoot -2.46493 5.62566
rtoes -29.6648
lfemur 0.732024 -8.14023 -24.3145
ltibia 23.2397
lfoot -10.8588 -21.8098
ltoes -16.287
373
root 12.8156 15.8244 8.94398 190.888 6.67374 176.995
lowerback -5.73288 -0.537058 0.25623
upperback -9.15063 0.212517 -1.87712
thorax -6.32027 0.451291 -2.15182
lowerneck 6.94483 -10.2144 -31.3563
upperneck 5.74333 -16.8778 35.3221
head 6.93475 -8.42571 17.412
rclavicle -1.66482e-015 1.58034e-014
rhumerus -27.3847 19.8414 -78.7555
rradius 64.7929
rwrist -17.9954
rhand -16.9763 -30.3562
rfingers 7.12502
rthumb 9.25818 -60.1329
lclavicle -1.66482e-015 1.58034e-014
lhumerus -33.7908 -15.1583 76.546
lradius 73.303
lwrist 60.7211
lhand -20.0312 15.9934
lfingers 7.12502
lthumb 6.30967 45.8794
rfemur -43.9089 2.97326 13.7633
rtibia 28.9066
rfoot -2.04967 5.9498
rtoes -28.5429
lfemur 0.704085 -8.57766 -23.8164
ltibia 24.3057
lfoot -9.9248 -21.7905
ltoes -16.7557
374
root 12.8744 15.8254 8.78893 190.91 6.44658 177.462
lowerback -5.83035 -0.456534 0.790457
upperback -9.18644 0.323723 -1.78649
thorax -6.30266 0.478255 -2.35604
lowerneck 7.04349 -10.2311 -31.3908
upperneck 5.73906 -16.9242 35.2573
head 6.92666 -8.45857 17.3791
rclavicle 9.21864e-015 1.43125e-014
rhumerus -27.6622 19.8153 -78.9134
rradius 64.6909
rwrist -17.791
rhand -17.0527 -30.2854
rfingers 7.12502
rthumb 9.18448 -60.0654
lclavicle 9.21864e-015 1.43125e-014
lhumerus -34.0567 -14.9395 76.6347
lradius 73.3064
lwrist 60.567
lhand -19.9637 15.9052
lfingers 7.12502
lthumb 6.37482 45.7892
rfemur -43.7916 3.16173 14.3999
rtibia 29.8659
rfoot -1.94555 6.13588
rtoes -27.3009
lfemur 0.556781 -8.88178 -23.2689
ltibia 25.6097
lfoot -8.81879 -21.8447
ltoes -16.7792
375
root 12.9318 15.8253 8.63646 190.904 6.28241 177.951
lowerback -5.8759 -0.351952 1.33859
upperback -9.20467 0.461181 -1.69659
thorax -6.29339 0.515205 -2.56869
lowerneck 7.11635 -10.2632 -31.4119
upperneck 5.73027 -16.9852 35.2223
head 6.9314 -8.49447 17.3552
rclavicle -9.7156e-015 -9.93923e-016
rhumerus -27.9176 19.7435 -79.0743
rradius 64.5747
rwrist -17.5454
rhand -17.1046 -30.1767
rfingers 7.12502
rthumb 9.1344 -59.9589
lclavicle -9.7156e-015 -9.93923e-016
lhumerus -34.3112 -14.7228 76.7118
lradius 73.3076
lwrist 60.4075
lhand -19.9196 15.7804
lfingers 7.12502
lthumb 6.41744 45.6632
rfemur -43.6315 3.40847 15.0716
rtibia 30.8022
rfoot -2.11888 6.20883
rtoes -26.0307
lfemur 0.310233 -9.03437 -22.6979
ltibia 27.1019
lfoot -7.47634 -21.9635
ltoes -16.325
376
root 12.9881 15.8244 8.48659 190.853 6.17771 178.424
lowerback -5.86199 -0.230104 1.85446
upperback -9.19931 0.616058 -1.61365
thorax -6.28972 0.56016 -2.7705
lowerneck 7.16629 -10.3074 -31.4221
upperneck 5.71541 -17.057 35.2119
head 6.94593 -8.53242 17.3385
rclavicle -6.36111e-015 5.56597e-015
rhumerus -28.1519 19.6324 -79.2326
rradius 64.4599
rwrist -17.2887
rhand -17.1453 -30.0246
rfingers 7.12502
rthumb 9.09515 -59.8085
lclavicle -6.36111e-015 5.56597e-015
lhumerus -34.5463 -14.5053 76.7803
lradius 73.3003
lwrist 60.2398
lhand -19.9046 15.5943
lfingers 7.12502
lthumb 6.43193 45.4767
rfemur -43.4048 3.70076 15.7316
rtibia 31.6999
rfoot -2.50728 6.18955
rtoes -24.8794
lfemur 0.000589155 -9.03164 -22.1425
ltibia 28.734
lfoot -5.8286 -22.1267
ltoes -15.3438
377
root 13.0435 15.8232 8.33929 190.766 6.1157 178.856
lowerback -5.79832 -0.10103 2.31257
upperback -9.18019 0.778264 -1.54214
thorax -6.297 0.610483 -2.95228
lowerneck 7.20506 -10.3603 -31.4254
upperneck 5.70026 -17.1382 35.2192
head 6.96837 -8.57285 17.3276
rclavicle -5.889e-015 -6.95746e-015
rhumerus -28.3735 19.4815 -79.3905
rradius 64.3486
rwrist -17.0395
rhand -17.1956 -29.8522
rfingers 7.12502
rthumb 9.04663 -59.6382
lclavicle -5.889e-015 -6.95746e-015
lhumerus -34.7696 -14.2859 76.8441
lradius 73.2808
lwrist 60.0603
lhand -19.9 15.3492
lfingers 7.12502
lthumb 6.43638 45.2314
rfemur -43.1126 4.01187 16.351
rtibia 32.5438
rfoot -3.03697 6.10713
rtoes -23.9238
lfemur -0.371617 -8.89166 -21.621
ltibia 30.4643
lfoot -3.79147 -22.2863
ltoes -13.7347
378
root 13.0987 15.8226 8.19493 190.65 6.07932 179.233
lowerback -5.68598 0.0214987 2.68831
upperback -9.15504 0.9321 -1.47241
thorax -6.32418 0.660607 -3.09058
lowerneck 7.24398 -10.4102 -31.4387
upperneck 5.68288 -17.2164 35.2375
head 6.99178 -8.61229 17.3253
rclavicle -1.14301e-015 4.96962e-015
rhumerus -28.5889 19.3222 -79.5402
rradius 64.2532
rwrist -16.8167
rhand -17.2686 -29.6852
rfingers 7.12502
rthumb 8.97617 -59.4743
lclavicle -1.14301e-015 4.96962e-015
lhumerus -34.9862 -14.0483 76.9129
lradius 73.2438
lwrist 59.8631
lhand -19.8903 15.0484
lfingers 7.12502
lthumb 6.44568 44.9303
rfemur -42.7556 4.32425 16.917
rtibia 33.3174
rfoot -3.64949 6.00342
rtoes -23.0498
lfemur -0.807057 -8.63342 -21.1355
ltibia 32.2566
lfoot -1.32246 -22.3704
ltoes -11.4869
379
root 13.1534 15.8236 8.05327 190.511 6.04285 179.553
lowerback -5.5327 0.131064 2.98669
upperback -9.12718 1.06995 -1.40804
thorax -6.37156 0.706576 -3.19219
lowerneck 7.28038 -10.4595 -31.4619
upperneck 5.66694 -17.295 35.2634
head 7.0187 -8.65215 17.3293
rclavicle -7.62836e-015 4.77083e-015
rhumerus -28.6402 18.6767 -79.4082
rradius 64.0375
rwrist -14.8684
rhand -14.7119 -29.4929
rfingers 7.12502
rthumb 11.4426 -59.1606
lclavicle -7.62836e-015 4.77083e-015
lhumerus -35.1946 -13.7976 76.9846
lradius 73.1905
lwrist 59.6547
lhand -19.8469 14.712
lfingers 7.12502
lthumb 6.48761 44.5926
rfemur -42.3293 4.58961 17.4376
rtibia 34.0019
rfoot -4.32507 5.88003
rtoes -22.3261
lfemur -1.30899 -8.29345 -20.685
ltibia 34.0853
lfoot 1.58514 -22.2799
ltoes -8.56826
380
root 13.2073 15.8272 7.91333 190.352 5.99318 179.836
lowerback -5.35015 0.229794 3.23586
upperback -9.0928 1.19377 -1.34742
thorax -6.42876 0.747638 -3.27098
lowerneck 7.31705 -10.5088 -31.4897
upperneck 5.64389 -17.3732 35.2999
head 7.04558 -8.69201 17.3396
rclavicle -1.78658e-014 2.98177e-015
rhumerus -28.734 18.1269 -79.3216
rradius 63.8911
rwrist -13.3749
rhand -12.7663 -29.2374
rfingers 7.12502
rthumb 13.3184 -58.7918
lclavicle -1.78658e-014 2.98177e-015
lhumerus -35.3868 -13.5448 77.0569
lradius 73.1261
lwrist 59.4501
lhand -19.7601 14.3808
lfingers 7.12502
lthumb 6.57137 44.2589
rfemur -41.8174 4.78044 17.9433
rtibia 34.578
rfoot -5.03093 5.74048
rtoes -21.7629
lfemur -1.86978 -7.90468 -20.2483
ltibia 35.9304
lfoot 4.84717 -21.9245
ltoes -5.10832
381
root 13.2606 15.8339 7.77507 190.193 5.89588 180.103
lowerback -5.15227 0.310139 3.46029
upperback -9.05773 1.2948 -1.28485
thorax -6.49539 0.778736 -3.33462
lowerneck 7.35345 -10.5598 -31.5201
upperneck 5.61142 -17.4532 35.3459
head 7.07233 -8.73286 17.3545
rclavicle 3.72721e-016 -6.16232e-015
rhumerus -28.8347 17.5904 -79.2255
rradius 63.7826
rwrist -12.0053
rhand -10.9446 -28.9331
rfingers 7.12502
rthumb 15.0738 -58.3643
lclavicle 3.72721e-016 -6.16232e-015
lhumerus -35.5617 -13.3008 77.1305
lradius 73.0553
lwrist 59.2499
lhand -19.6413 14.0959
lfingers 7.12502
lthumb 6.68612 43.9703
rfemur -41.2276 4.86851 18.4577
rtibia 35.0265
rfoot -5.73756 5.59407
rtoes -21.3434
lfemur -2.51317 -7.51274 -19.7934
ltibia 37.7803
lfoot 8.321 -21.2762
ltoes -1.32841
382
root 13.313 15.8439 7.63797 190.046 5.7321 180.379
lowerback -4.95663 0.371564 3.6915
upperback -9.0214 1.37219 -1.2183
thorax -6.5612 0.797974 -3.39817
lowerneck 7.39493 -10.6134 -31.5429
upperneck 5.56053 -17.5345 35.4018
head 7.09394 -8.77444 17.3716
rclavicle -5.59082e-015 2.18663e-015
rhumerus -28.9998 17.2573 -79.2228
rradius 63.7663
rwrist -11.429
rhand -10.2826 -28.7263
rfingers 7.12502
rthumb 15.7115 -58.1085
lclavicle -5.59082e-015 2.18663e-015
lhumerus -35.7102 -13.0839 77.2034
lradius 72.9788
lwrist 59.0694
lhand -19.5323 13.8997
lfingers 7.12502
lthumb 6.79129 43.7708
rfemur -40.56 4.8318 19.0074
rtibia 35.3332
rfoot -6.43041 5.47276
rtoes -21.029
lfemur -3.24837 -7.15004 -19.2959
ltibia 39.6317
lfoot 11.8163 -20.3858
ltoes 2.49053
383
root 13.3646 15.8578 7.50168 189.921 5.48664 180.684
lowerback -4.7786 0.410137 3.95359
upperback -8.9832 1.42081 -1.14108
thorax -6.6175 0.801938 -3.46752
lowerneck 7.43456 -10.6708 -31.5547
upperneck 5.49062 -17.6167 35.4654
head 7.1107 -8.81604 17.3886
rclavicle -2.49475e-014 -2.40529e-014
rhumerus -29.2398 17.2271 -79.3648
rradius 63.8548
rwrist -11.964
rhand -11.2749 -28.694
rfingers 7.12502
rthumb 14.7557 -58.1488
lclavicle -2.49475e-014 -2.40529e-014
lhumerus -35.8297 -12.8946 77.2742
lradius 72.9051
lwrist 58.917
lhand -19.4493 13.7908
lfingers 7.12502
lthumb 6.87142 43.6592
rfemur -39.8236 4.66691 19.6105
rtibia 35.4906
rfoot -7.09062 5.389
rtoes -20.7749
lfemur -4.09283 -6.85163 -18.7359
ltibia 41.4897
lfoot 15.1152 -19.383
ltoes 5.9884
